<?xml version="1.0" encoding="UTF-8" standalone="no"?>
<svg
   version="1.0"
   width="256.000000pt"
   height="256.000000pt"
   viewBox="0 0 256.000000 256.000000"
   preserveAspectRatio="xMidYMid meet"
   id="svg3"
   sodipodi:docname="inbe.svg"
   inkscape:version="1.3.2 (091e20ef0f, 2023-11-25)"
   xmlns:inkscape="http://www.inkscape.org/namespaces/inkscape"
   xmlns:sodipodi="http://sodipodi.sourceforge.net/DTD/sodipodi-0.dtd"
   xmlns="http://www.w3.org/2000/svg"
   xmlns:svg="http://www.w3.org/2000/svg">
  <defs
     id="defs3" />
  <sodipodi:namedview
     id="namedview3"
     pagecolor="#ffffff"
     bordercolor="#000000"
     borderopacity="0.25"
     inkscape:showpageshadow="2"
     inkscape:pageopacity="0.0"
     inkscape:pagecheckerboard="0"
     inkscape:deskcolor="#d1d1d1"
     inkscape:document-units="pt"
     showguides="true"
     inkscape:zoom="2.3554688"
     inkscape:cx="170.45439"
     inkscape:cy="170.66667"
     inkscape:window-width="1920"
     inkscape:window-height="1008"
     inkscape:window-x="0"
     inkscape:window-y="44"
     inkscape:window-maximized="1"
     inkscape:current-layer="svg3">
    <sodipodi:guide
       position="4.1393034,253.77114"
       orientation="0,-1"
       id="guide4"
       inkscape:locked="false" />
  </sodipodi:namedview>
  <metadata
     id="metadata1">
Created by potrace 1.10, written by Peter Selinger 2001-2011
</metadata>
  <ellipse
     style="fill:#ffffff;stroke-width:0.784944"
     id="path4"
     cy="130.575"
     cx="127.87927"
     rx="110.80919"
     ry="108.63714" />
  <g
     transform="matrix(0.1,0,0,-0.1,0,256)"
     fill="#283459"
     stroke="none"
     id="g3">
    <path
       d="M1180 2383 c-171 -27 -264 -55 -395 -121 -127 -63 -197 -113 -296 -212 -146 -145 -240 -310 -297 -519 -23 -86 -26 -114 -26 -276 0 -164 2 -189 27 -284 83 -323 298 -579 609 -725 128 -61 202 -83 337 -103 215 -31 435 7 646 112 127 63 201 116 303 217 155 154 255 344 297 562 22 110 21 333 -1 440 -70 343 -288 631 -597 787 -188 96 -447 148 -607 122z m-262 -164 c4 -19 -27 -34 -41 -20 -14 14 0 43 20 39 10 -2 19 -10 21 -19z m437 -8 c60 -33 83 -127 45 -188 -28 -47 -65 -67 -121 -67 -154 0 -190 218 -44 269 44 15 74 11 120 -14z m332 13 c3 -8 1 -20 -5 -26 -15 -15 -43 8 -35 28 7 19 32 18 40 -2z m-618 -18 c9 -10 8 -16 -4 -26 -19 -16 -41 1 -32 24 8 20 21 20 36 2z m467 -45 c-10 -16 -36 -13 -43 5 -8 22 18 37 36 20 7 -8 10 -19 7 -25z m-765 -58 c13 -20 18 -38 13 -43 -11 -11 -22 -4 -57 39 -22 26 -25 36 -16 47 14 18 30 7 60 -43z m195 22 c4 -15 16 -28 30 -31 29 -7 32 -34 4 -34 -13 0 -24 -10 -30 -25 -11 -30 -30 -33 -37 -5 -3 11 -16 23 -29 26 -29 8 -31 30 -3 39 11 4 24 18 29 31 12 31 28 31 36 -1z m889 15 c6 -10 -52 -90 -67 -90 -14 0 -9 28 13 64 21 35 42 46 54 26z m-175 -80 c0 -11 -6 -20 -13 -20 -19 0 -27 10 -20 26 8 21 33 17 33 -6z m-921 -140 c151 -161 168 -184 149 -196 -8 -5 -68 50 -169 156 -145 151 -172 190 -134 190 8 0 77 -67 154 -150z m1218 133 c2 -6 -68 -85 -156 -175 -116 -119 -162 -160 -171 -152 -13 13 20 54 180 222 107 113 138 134 147 105z m-1143 -55 c19 -27 20 -38 5 -38 -14 0 -38 30 -39 48 0 19 17 14 34 -10z m926 11 c0 -20 -21 -49 -35 -49 -19 0 -19 5 1 35 17 26 34 33 34 14z m-1098 -173 c175 -141 196 -162 181 -177 -9 -9 -68 34 -346 252 -20 16 -19 49 2 49 5 0 78 -56 163 -124z m408 109 c0 -9 11 -21 25 -27 14 -6 25 -15 25 -20 0 -5 -11 -13 -25 -18 -14 -5 -25 -16 -25 -25 0 -22 -27 -19 -35 4 -3 10 -15 21 -25 24 -27 7 -25 22 5 35 14 6 25 18 25 27 0 8 7 15 15 15 8 0 15 -7 15 -15z m455 -4 c3 -11 15 -23 26 -26 25 -8 25 -25 -1 -32 -10 -3 -22 -14 -25 -24 -8 -23 -35 -26 -35 -4 0 9 -11 20 -25 25 -14 5 -25 13 -25 18 0 5 11 14 25 20 14 6 25 18 25 27 0 22 28 18 35 -4z m555 2 c0 -18 -103 -107 -267 -232 -58 -45 -87 -61 -94 -54 -7 7 3 23 33 51 75 71 302 252 316 252 6 0 12 -8 12 -17z m-1180 -44 c0 -12 -27 -11 -35 1 -11 17 5 32 21 19 8 -6 14 -15 14 -20z m800 12 c0 -5 -6 -14 -14 -20 -16 -13 -32 2 -21 19 8 12 35 13 35 1z m-1271 -74 c8 -10 7 -17 -1 -25 -15 -15 -39 3 -31 24 7 18 17 18 32 1z m1739 -10 c2 -12 -3 -17 -17 -17 -12 0 -21 6 -21 13 0 31 32 34 38 4z m-812 -22 c28 -18 54 -70 54 -107 0 -37 -34 -90 -71 -110 -114 -63 -235 78 -162 188 34 52 122 66 179 29z m-765 -62 c66 -42 93 -82 49 -70 -40 10 -169 92 -170 108 0 38 10 35 121 -38z m1509 40 c-1 -23 -179 -128 -193 -114 -15 15 -1 29 82 82 81 52 111 60 111 32z m-1077 -39 c-3 -8 -12 -14 -19 -14 -20 0 -30 30 -13 40 17 11 40 -7 32 -26z m555 9 c-5 -26 -38 -29 -38 -4 0 15 6 21 21 21 14 0 19 -5 17 -17z m-1083 -97 c89 -43 135 -70 135 -80 0 -9 -4 -16 -10 -16 -5 0 -72 28 -149 63 -104 45 -141 67 -141 80 0 9 7 17 15 17 9 0 76 -29 150 -64z m1740 44 c0 -17 -132 -83 -151 -76 -27 10 -13 26 54 60 70 37 97 41 97 16z m-1191 -101 c-9 -15 -23 -10 -34 11 -17 32 0 47 22 21 10 -13 15 -27 12 -32z m516 33 c0 -5 -9 -17 -20 -27 -20 -18 -25 -11 -14 19 6 17 34 23 34 8z m-774 -41 c4 -20 13 -31 27 -33 30 -4 32 -26 4 -37 -15 -6 -27 -19 -29 -33 -4 -31 -31 -29 -38 2 -4 16 -14 26 -28 28 -30 5 -28 30 3 42 14 5 25 17 25 28 0 41 28 43 36 3z m1042 0 c2 -12 14 -26 27 -31 35 -13 39 -29 10 -40 -14 -5 -30 -21 -35 -35 -12 -32 -26 -32 -34 0 -4 15 -18 30 -32 35 -29 12 -27 34 3 38 14 2 23 13 27 33 7 35 29 35 34 0z m182 9 c0 -8 -51 -40 -65 -40 -15 0 -2 32 18 40 30 12 47 12 47 0z m-867 -24 c3 -8 3 -17 0 -20 -7 -7 -33 13 -33 25 0 15 27 10 33 -5z m307 5 c0 -13 -26 -32 -33 -24 -8 7 11 33 24 33 5 0 9 -4 9 -9z m-1141 -10 c11 -7 9 -10 -8 -16 -25 -8 -36 -2 -26 14 8 13 15 14 34 2z m1981 -7 c0 -11 -5 -14 -16 -10 -9 3 -18 6 -20 6 -3 0 -2 5 1 10 10 16 35 12 35 -6z m-1343 -10 c3 -8 1 -20 -5 -26 -15 -15 -43 8 -35 28 7 19 32 18 40 -2z m711 -7 c4 -20 -25 -34 -40 -19 -15 15 -1 44 19 40 10 -2 19 -11 21 -21z m-578 -13 c0 -17 -22 -14 -28 4 -2 7 3 12 12 12 9 0 16 -7 16 -16z m422 1 c0 -5 -5 -11 -11 -13 -6 -2 -11 4 -11 13 0 9 5 15 11 13 6 -2 11 -8 11 -13z m-227 -15 c14 0 36 5 48 11 16 9 22 9 25 0 2 -6 31 -25 64 -42 65 -33 70 -41 148 -230 27 -68 35 -78 71 -94 37 -17 42 -17 75 -2 43 21 63 21 92 1 27 -19 28 -55 3 -78 -22 -20 -60 -19 -180 3 -113 21 -151 59 -151 153 0 56 -18 96 -38 84 -17 -10 -15 -159 2 -199 7 -18 20 -40 29 -48 14 -15 7 -20 -83 -54 l-100 -37 -94 36 -94 37 24 42 c20 35 24 56 24 129 0 84 -10 112 -32 90 -5 -5 -13 -44 -17 -87 -7 -73 -10 -80 -41 -107 -22 -18 -46 -28 -66 -28 -17 0 -53 -7 -80 -15 -95 -29 -164 -13 -164 38 0 28 29 57 56 57 13 0 39 -7 58 -17 29 -13 39 -14 64 -4 46 19 66 48 106 151 51 133 65 153 130 184 31 15 56 31 56 37 0 6 7 6 19 -1 11 -5 32 -10 46 -10z m-844 -30 c74 -21 146 -97 170 -180 17 -61 25 -68 51 -43 64 60 194 57 257 -6 27 -27 26 -35 -4 -49 -19 -9 -30 -8 -52 3 -36 19 -67 19 -108 0 -38 -19 -55 -51 -55 -104 0 -21 -6 -44 -14 -50 -8 -7 -21 -27 -30 -45 -13 -27 -23 -34 -53 -39 -21 -3 -45 -8 -54 -11 -11 -5 -23 4 -40 28 -38 55 -108 88 -188 89 -36 0 -69 5 -73 11 -4 6 -8 46 -8 89 0 74 1 78 26 87 60 23 152 4 202 -43 34 -32 62 -91 62 -132 0 -39 18 -47 41 -18 8 9 33 25 57 35 33 15 42 24 42 43 0 29 -15 31 -64 11 -34 -14 -34 -14 -40 15 -8 39 -68 103 -122 129 -37 18 -58 21 -124 18 l-80 -3 0 33 c0 66 20 120 49 131 35 13 108 13 152 1z m1875 -12 c11 -11 18 -40 21 -85 l5 -68 -77 3 c-66 3 -84 0 -130 -23 -54 -26 -110 -87 -121 -131 -5 -20 -7 -20 -50 -6 -51 17 -57 14 -49 -20 4 -16 18 -29 39 -36 18 -7 41 -21 51 -32 24 -26 45 -25 45 1 0 81 65 167 143 189 44 12 125 9 148 -6 10 -6 12 -71 3 -137 l-6 -45 -67 1 c-81 1 -138 -24 -192 -84 -32 -36 -39 -40 -57 -30 -11 6 -32 11 -46 11 -34 0 -96 94 -96 146 0 81 -87 129 -163 89 -22 -11 -33 -12 -52 -3 -14 6 -25 14 -25 18 0 12 55 59 83 69 65 25 162 8 196 -33 23 -28 36 -17 54 47 15 50 29 72 70 112 29 28 68 56 87 62 51 17 166 11 186 -9z m-1695 -19 c42 -29 89 -77 89 -90 0 -3 -11 -11 -24 -17 -22 -10 -25 -8 -37 21 -7 18 -31 51 -52 75 -47 50 -37 54 24 11z m1370 -4 c-17 -20 -40 -53 -51 -75 -19 -37 -22 -39 -45 -28 -14 6 -25 14 -25 18 0 17 127 120 149 120 1 0 -11 -16 -28 -35z m-963 -8 c4 -20 -25 -34 -40 -19 -15 15 -1 44 19 40 10 -2 19 -11 21 -21z m567 -2 c0 -11 -7 -21 -16 -23 -18 -3 -33 23 -23 39 10 17 39 5 39 -16z m-667 -12 c2 -8 -5 -13 -17 -13 -21 0 -35 13 -24 24 10 10 36 3 41 -11z m760 5 c-6 -18 -28 -21 -28 -4 0 9 7 16 16 16 9 0 14 -5 12 -12z m-727 -81 c23 -10 25 -16 18 -35 l-9 -23 -37 26 c-21 14 -44 25 -51 25 -7 0 -10 5 -7 10 8 13 54 12 86 -3z m743 4 c3 -5 -8 -14 -24 -21 -16 -7 -35 -18 -41 -26 -16 -20 -24 -18 -37 11 -9 20 -9 27 1 30 6 2 19 6 27 8 25 9 69 8 74 -2z m-896 -341 c29 0 30 -1 25 -39 -7 -54 2 -84 38 -126 21 -24 48 -40 87 -52 31 -9 59 -18 61 -19 1 -2 -10 -29 -25 -60 -33 -67 -37 -160 -12 -232 19 -51 14 -55 -63 -55 -100 1 -196 78 -214 170 -8 42 -23 57 -42 41 -17 -14 -16 -50 2 -94 13 -31 13 -36 -1 -41 -27 -10 -103 19 -138 53 -47 45 -70 111 -63 173 7 60 37 122 72 149 33 26 91 45 116 39 15 -4 23 3 35 31 22 55 53 83 75 72 10 -6 31 -10 47 -10z m297 -16 c52 -20 95 -40 95 -44 0 -4 -26 -18 -57 -30 -54 -21 -96 -53 -105 -80 -7 -21 -89 9 -125 45 -35 35 -41 62 -21 98 31 58 82 61 213 11z m570 11 c58 -57 11 -140 -96 -170 -74 -20 -245 -32 -382 -27 -150 6 -136 19 138 129 256 103 298 111 340 68z m194 -6 c13 -17 27 -43 30 -58 6 -21 13 -25 34 -23 39 5 111 -31 139 -69 39 -54 51 -93 46 -159 -7 -100 -70 -171 -167 -186 -43 -7 -44 -7 -36 17 15 48 18 111 5 119 -20 12 -40 0 -40 -24 0 -41 -48 -120 -92 -151 -35 -24 -55 -30 -110 -33 -98 -6 -99 -5 -76 65 25 73 20 144 -17 220 -15 30 -25 55 -24 57 2 1 24 8 49 15 95 27 146 90 138 173 l-5 48 31 0 c17 0 38 5 46 10 22 14 24 13 49 -21z m-1483 8 c32 -13 70 -41 92 -69 12 -15 10 -22 -11 -50 -35 -45 -48 -82 -56 -158 l-6 -65 -37 65 c-40 70 -92 196 -103 247 -5 25 -3 32 12 36 32 8 77 6 109 -6z m1923 4 c12 -7 12 -17 2 -57 -16 -66 -86 -222 -114 -257 l-22 -28 -1 58 c-1 61 -26 126 -67 170 l-20 23 41 40 c55 51 141 76 181 51z m-803 -272 c48 -40 70 -172 40 -243 -21 -50 -81 -111 -134 -137 -66 -31 -180 -32 -238 -1 -97 50 -142 114 -151 212 -6 57 17 131 52 170 19 21 405 20 431 -1z m-706 -344 c45 -23 147 -31 194 -15 36 12 39 11 69 -18 118 -112 336 -112 453 0 30 28 34 29 70 19 71 -20 136 -14 201 19 34 17 66 37 72 44 9 10 21 12 52 5 22 -5 45 -6 51 -3 6 4 9 1 6 -7 -8 -26 -172 -128 -268 -168 -321 -132 -643 -109 -940 66 -73 43 -170 119 -140 110 9 -3 33 -1 55 2 33 6 44 4 65 -15 14 -12 41 -30 60 -39z"
       id="path1" />
    <path
       d="M780 1130 c0 -15 27 -23 47 -16 15 6 15 8 3 16 -20 13 -50 12 -50 0z"
       id="path2" />
    <path
       d="M1737 1133 c-14 -13 -6 -24 15 -21 27 4 36 28 11 28 -11 0 -23 -3 -26 -7z"
       id="path3" />
  </g>
</svg>
