<?xml version="1.0" encoding="UTF-8" standalone="no"?>
<!-- Created with Inkscape (http://www.inkscape.org/) -->

<svg
   version="1.1"
   id="svg2"
   width="1156"
   height="1157.9276"
   viewBox="0 0 1156 1157.9276"
   sodipodi:docname="logo.svg"
   inkscape:version="1.1.2 (0a00cf5339, 2022-02-04)"
   xmlns:inkscape="http://www.inkscape.org/namespaces/inkscape"
   xmlns:sodipodi="http://sodipodi.sourceforge.net/DTD/sodipodi-0.dtd"
   xmlns="http://www.w3.org/2000/svg"
   xmlns:svg="http://www.w3.org/2000/svg">
  <defs
     id="defs6" />
  <sodipodi:namedview
     id="namedview4"
     pagecolor="#ffffff"
     bordercolor="#666666"
     borderopacity="1.0"
     inkscape:pageshadow="2"
     inkscape:pageopacity="0.0"
     inkscape:pagecheckerboard="0"
     showgrid="false"
     inkscape:zoom="0.73312494"
     inkscape:cx="496.50473"
     inkscape:cy="507.41692"
     inkscape:window-width="1920"
     inkscape:window-height="1011"
     inkscape:window-x="0"
     inkscape:window-y="0"
     inkscape:window-maximized="1"
     inkscape:current-layer="g342"
     width="1028px"
     fit-margin-top="128"
     fit-margin-left="128"
     fit-margin-right="128"
     fit-margin-bottom="128" />
  <g
     inkscape:groupmode="layer"
     inkscape:label="Image"
     id="g8"
     transform="translate(27.999997,60.500562)">
    <g
       id="g342"
       transform="matrix(0.96068594,0,0,0.96068594,953.4177,65.404369)">
      <path
         style="fill:#000000;stroke-width:1.33333"
         d="m -459.36153,940.04035 c -11.39104,-1.0189 -35.98731,-4.8953 -63.33333,-9.9815 -7.32039,-1.36152 -40.01262,-11.06506 -51.29616,-15.22543 -66.11501,-24.37737 -128.3355,-61.91205 -170.03718,-102.57539 -35.59004,-34.70385 -54.81698,-58.37839 -77.84347,-95.85024 -25.69244,-41.8103 -46.07944,-91.73256 -54.76098,-134.0949 -6.91221,-33.72877 -9.11294,-50.15576 -10.91767,-81.49319 -1.52488,-26.47815 -0.75112,-68.10229 1.49952,-80.66667 0.72248,-4.03333 1.64934,-9.73333 2.05967,-12.66667 0.41033,-2.93333 1.30195,-8.63333 1.98137,-12.66666 0.67942,-4.03334 1.57393,-9.35235 1.9878,-11.82003 3.35369,-19.99617 17.2022,-65.60443 28.4832,-93.80575 16.29465,-40.73488 49.31885,-93.09115 79.27661,-125.68446 43.15887,-46.95577 72.73423,-71.186436 118.90062,-97.413556 43.54356,-24.7371 100.97179,-47.48887 134,-53.087785 1.83333,-0.310785 5.73333,-1.195605 8.66667,-1.966265 2.93333,-0.77066 7.9186,-1.7701556 11.07836,-2.2210996 3.15976,-0.450944 10.65976,-1.694746 16.66666,-2.764003 6.00691,-1.069257 15.12165,-2.385019 20.25498,-2.923916 12.36307,-1.297873 74.9516,-1.258224 86.18239,0.0546 15.53065,1.815452 54.04356,8.8077536 68.16203,12.3753176 40.99138,10.358031 91.97807,31.442521 125.65559,51.962271 60.59408,36.920056 96.766734,69.393456 137.696704,123.614886 8.70637,11.53365 16.6863,22.61777 17.7332,24.63137 1.04689,2.01359 4.4664,7.57323 7.59892,12.35475 11.8892002,18.14784 34.18186,66.2874 44.15986,95.36034 9.05826,26.39304 19.20115,71.83615 22.21476,99.52871 1.7686,16.25109 2.0847,28.30508 1.5336,58.47129 -0.6074,33.25182 -3.24829,67.80008 -5.70394,74.62118 -0.38702,1.07498 -1.912,8.27498 -3.38888,16 -13.8327,72.35389 -46.8331898,140.9409 -96.25145,200.04549 -15.64944,18.71683 -44.223744,47.51727 -55.560304,56 -2.45012,1.83334 -5.10975,3.97068 -5.91028,4.74966 -0.80054,0.77898 -5.95552,4.81285 -11.45552,8.96416 -5.5,4.15131 -10.6,8.01396 -11.33334,8.58368 -14.01415,10.88735 -53.6904,34.20325 -76.10508,44.72344 -21.01255,9.86211 -67.40239,27.33736 -78.51952,29.57864 -1.4898,0.30036 -7.80874,1.8418 -14.04207,3.42541 -14.16629,3.59902 -27.32233,5.99132 -52,9.45572 -22.40768,3.1457 -74.63307,4.437 -97.33334,2.4066 z m 86,-27.87242 c 5.13334,-0.78635 10.83334,-1.6767 12.66667,-1.97856 1.83334,-0.30187 6.03334,-0.92918 9.33334,-1.394 38.88349,-5.47712 106.12557,-28.6376 141.82423,-48.84915 25.63222,-14.51221 74.19527,-49.12231 74.16928,-52.85923 -0.004,-0.51367 -6.45357,-0.97976 -14.33333,-1.03576 -8.56127,-0.0608 -17.38557,-0.94197 -21.92745,-2.18951 l -7.60061,-2.08769 -5.27584,4.85617 c -9.61911,8.85396 -11.85199,10.56446 -20.96935,16.06339 -10.91865,6.58535 -26.38352,12.69592 -37.13181,14.67176 -11.02979,2.02758 -33.02574,1.77452 -43.77654,-0.50364 -4.96178,-1.05143 -12.59298,-3.51451 -16.95822,-5.47352 l -7.93682,-3.56183 -7.05089,7.16335 c -11.84969,12.03867 -24.35981,21.49348 -36.55148,27.62463 -9.87176,4.96447 -33.45347,12.07697 -44.72923,13.49084 -43.43668,5.44649 -81.54666,-5.34268 -113.71566,-32.19364 -6.75576,-5.63893 -13.27806,-11.77095 -14.494,-13.62671 l -2.2108,-3.37411 -4.33241,2.51428 c -17.57881,10.20173 -52.42683,12.36359 -75.31007,4.67203 -16.86891,-5.67 -32.37049,-14.62552 -44.58137,-25.75537 l -7.10764,-6.47842 -5.33334,1.98234 c -3.47594,1.29196 -10.78666,2.03893 -20.99219,2.14489 -8.61237,0.0895 -15.66237,0.51865 -15.66666,0.95385 -0.004,0.43522 2.88498,3.23054 6.42062,6.21184 33.16775,27.96745 84.65847,57.60495 124.9049,71.89389 65.2898,23.18025 104.77131,30.1028 165.33334,28.98898 13.2,-0.24276 28.2,-1.08476 33.33333,-1.8711 z m -11.33333,-64.63568 c 18.76884,-6.11104 30.77544,-13.03925 43.72412,-25.23022 25.18184,-23.70831 37.4721,-56.92447 32.36916,-87.48232 -2.36557,-14.16575 -2.74576,-15.59884 -6.64982,-25.06628 -3.54396,-8.59422 -10.69516,-19.76611 -19.17196,-29.95122 l -3.06623,-3.68414 -23.93596,2.05681 c -15.25463,1.31083 -36.26746,1.96064 -57.93598,1.79167 -31.50582,-0.24568 -44.37329,-0.79984 -72.85256,-3.13751 l -10.85256,-0.89083 -6.84181,8.44075 c -7.85564,9.69149 -14.5342,22.72929 -19.00812,37.10741 -2.64128,8.48847 -3.09794,12.72077 -3.02108,28.00001 0.0831,16.50185 0.4283,18.9648 4.14872,29.59188 11.9973,34.26942 40.45342,60.37565 76.23191,69.93672 10.2808,2.74733 13.91042,3.03357 33.52884,2.64409 19.72377,-0.39156 23.1726,-0.81854 33.33333,-4.12682 z m -167,-36.01102 c 5.31666,-1.35932 9.66666,-2.93895 9.66666,-3.51029 0,-0.57134 -1.15561,-3.0231 -2.56802,-5.44835 -3.8881,-6.67624 -7.99406,-20.00687 -10.33935,-33.56819 -2.46769,-14.26909 -1.72688,-39.0402 1.57652,-52.7148 2.44283,-10.11224 10.33957,-27.28124 17.13769,-37.26055 5.57932,-8.19017 5.8882,-9.53268 2.19316,-9.53268 -1.46666,0 -2.66666,-0.48269 -2.66666,-1.07265 0,-0.58996 -2.54148,-1.22261 -5.64775,-1.40591 -7.13763,-0.42114 -23.28077,-5.80265 -33.68559,-11.22949 -11.52507,-6.01112 -25.40537,-20.61392 -31.81719,-33.47331 -4.50628,-9.03769 -5.20174,-11.69456 -5.56,-21.24087 -0.25461,-6.78453 0.32322,-13.43244 1.52782,-17.57777 3.03697,-10.45089 3.00258,-10.69305 -1.48396,-10.44973 -9.87567,0.53561 -24.38059,-2.49674 -30.12084,-6.29694 l -5.76906,-3.81926 -3.75346,4.28296 c -7.21892,8.2373 -16.59018,23.01652 -19.62466,30.94964 -1.68302,4.4 -3.60577,9.42109 -4.27276,11.15798 -1.06802,2.78127 -1.72444,3.02803 -5.50262,2.06855 -5.54037,-1.407 -16.90895,-1.01816 -24.02629,0.82177 -11.85874,3.06566 -22.71896,9.60128 -33.03744,19.88178 -47.22065,47.04687 -26.67362,133.02256 35.28588,147.64804 8.46198,1.99744 21.64357,2.5203 26.29774,1.04311 2.46828,-0.7834 2.522,-1.0916 0.68024,-3.90248 -5.46669,-8.34321 -9.09227,-20.2578 -9.7534,-32.05208 -0.61915,-11.04561 -0.41988,-12.37115 2.50553,-16.66667 2.63971,-3.876 4.10528,-4.73488 8.65007,-5.06927 4.60563,-0.33888 5.91797,0.16452 8.2898,3.1798 1.70096,2.16242 2.81793,5.51415 2.81793,8.45582 0,7.64457 3.5734,19.86316 8.998,30.76699 7.70572,15.48901 27.96918,34.27261 45.09662,41.80316 16.57102,7.2859 40.29381,8.99012 58.90539,4.23169 z m 305.91293,0.78992 c 22.01678,-5.15927 44.36638,-19.93689 55.95754,-36.99929 7.91436,-11.65007 13.83032,-29.851 14.35323,-44.15882 0.17208,-4.70841 4.72949,-8.33625 10.44297,-8.31292 2.75,0.0107 5.63478,0.46123 6.41062,1 8.64328,6.0022 7.967,28.72692 -1.4146,47.53388 -2.54184,5.09555 -4.4292,9.45698 -4.19412,9.69206 0.23508,0.23508 5.17582,0.51104 10.97943,0.61325 20.36326,0.35861 37.98318,-6.99757 53.373174,-22.28292 16.94405,-16.82883 26.9018,-42.84047 25.16776,-65.74322 -1.40749,-18.58988 -3.06313,-25.05961 -10.13096,-39.58864 -8.2782,-17.01713 -22.544914,-31.15814 -38.970834,-38.62747 -8.65508,-3.9357 -29.42908,-6.934 -32.1866,-4.64546 -1.03791,0.86138 -3.18027,1.37008 -4.76083,1.13045 -2.2693,-0.34404 -3.49852,-2.39879 -5.84416,-9.76901 -3.7015,-11.6305 -6.16509,-16.37507 -13.94088,-26.84846 -8.78317,-11.83025 -9.64362,-12.12286 -20.78829,-7.06964 -7.10776,3.22282 -11.59417,4.3109 -19.31248,4.68379 -8.53117,0.41216 -10.06647,0.84533 -10.13687,2.86001 -0.0456,1.30587 0.4505,3.09135 1.1025,3.96775 0.652,0.87639 1.49506,7.17639 1.87345,14 0.8236,14.85197 -1.70167,24.48007 -9.50355,36.2341 -4.51197,6.79756 -19.97969,22.15149 -22.33074,22.16646 -0.51774,0.003 -3.81774,1.67356 -7.33334,3.71171 -7.14777,4.14387 -23.76128,9.98081 -35.39201,12.43453 -4.21667,0.88959 -7.66667,1.91202 -7.66667,2.27207 0,0.36005 2.91123,5.21457 6.4694,10.78783 8.4386,13.2176 9.10117,14.5336 13.62571,27.06324 9.52281,26.37123 8.16528,61.59852 -3.34338,86.75901 -6.14712,13.43899 -6.12109,13.55859 3.49276,16.0471 4.6322,1.19902 9.92218,2.37014 11.75551,2.6025 6.59972,0.83644 26.12903,-0.0804 32.24626,-1.51389 z M -42.098746,700.15304 c 9.2648,-14.34707 23.95049,-43.60459 31.80894,-63.37125 10.82510022,-27.22874 21.17467,-63.12201 18.4427502,-63.96107 -0.83295,-0.25583 -3.91445,-1.24338 -6.84779,-2.19456 -3.10608,-1.00719 -11.00494,-1.66864 -18.9144202,-1.58387 -11.2491,0.12053 -15.16959,0.75255 -22.8322,3.68059 -11.51887,4.40161 -23.33637,11.41685 -30.06406,17.84698 -5.07469,4.85026 -15.52265,18.04566 -15.52265,19.60456 0,0.44106 2.55,3.51363 5.66666,6.82795 13.744,14.61556 24.07514,35.35024 28.24011,56.67806 1.7856,9.14364 1.85337,28.99164 0.12693,37.1621 -1.28924,6.1013 -0.15793,4.87926 9.89577,-10.68949 z m -746.294474,6.67036 c -0.35212,-3.66464 0.0693,-14.31464 0.93646,-23.66667 2.49378,-26.89441 11.02628,-47.82964 26.15269,-64.16797 4.00172,-4.32235 7.27587,-8.48931 7.27587,-9.25991 0,-0.77061 -3.53768,-5.85292 -7.86152,-11.29401 -19.39472,-24.4062 -51.92106,-35.3371 -81.80515,-27.49166 -6.08254,1.59684 -6.14059,2.26811 -1.69777,19.6349 5.43356,21.23953 17.07044,51.64224 28.92695,75.57496 6.07091,12.25432 26.7071,47.22023 27.90843,47.28797 0.44235,0.0249 0.51618,-2.95297 0.16404,-6.61761 z m 447.69836,-55.19067 c 25.37136,-3.72444 50.4383,-9.99996 62.11632,-15.55085 21.73793,-10.33265 33.75763,-33.77236 26.14415,-50.9839 -5.53893,-12.52168 -15.42244,-19.6907 -30.47775,-22.10714 -14.04102,-2.25366 -23.25589,0.44704 -80.44938,23.57804 -12.83334,5.19025 -40.13334,16.0267 -60.66667,24.08102 -47.96055,18.81279 -62.89273,25.01334 -68.33023,28.3739 -4.023,2.48635 -8.33644,8.48551 -8.33644,11.59437 0,3.17186 42.87944,5.33886 94,4.75051 37.83987,-0.43551 47.08007,-0.95855 66,-3.73595 z m -183.97072,-9.14636 c 0.0452,-4.63616 4.44873,-13.27288 9.17901,-18.00316 4.72173,-4.72173 7.24025,-6.02345 24.79171,-12.81384 16.51288,-6.38857 33.95716,-13.69571 34.86647,-14.60503 0.89249,-0.89249 -0.009,-1.28332 -42.19981,-18.2873 -42.49272,-17.12583 -55.07709,-19.49563 -71.0911,-13.38739 -6.1713,2.35392 -12.82481,8.14504 -16.4343,14.30417 -2.56772,4.3815 -3.56824,8.34292 -4.11245,16.28292 -0.66403,9.68795 -0.43224,11.01998 3.02204,17.36662 4.60825,8.46689 14.02576,17.45228 23.12339,22.0624 6.65925,3.37449 29.75889,9.81828 35.82576,9.99381 2.23976,0.0648 3.00742,-0.67344 3.02928,-2.9132 z m -194.69596,-52.68516 c 4.76667,-1.49552 13.09071,-3.14649 18.49787,-3.66883 8.51007,-0.82208 9.93016,-1.33244 10.5676,-3.79785 2.29699,-8.88409 16.3126,-30.09996 23.32094,-35.30163 1.90164,-1.41141 2.07624,-2.1858 0.83108,-3.68613 -0.86698,-1.04464 -1.87046,-6.01032 -2.22996,-11.03485 -0.98674,-13.79078 3.11693,-24.67011 13.55737,-35.94239 13.66147,-14.74994 42.44908,-17.17194 61.33655,-5.16046 l 6.54812,4.16427 10.07325,-5.47424 c 5.54028,-3.01084 10.27974,-6.09372 10.53211,-6.85084 0.25239,-0.75713 -1.82723,-3.92057 -4.62136,-7.02988 -16.18723,-18.01315 -39.85824,-27.53409 -65.01132,-26.1488 -20.43791,1.12561 -37.34567,8.25673 -50.08527,21.12429 -4.86342,4.91227 -5.96238,5.44679 -8.99967,4.37735 -3.7682,-1.32679 -4.88387,-4.12668 -6.22729,-15.62807 -0.78851,-6.75064 -6.23664,-22.74834 -10.30415,-30.25678 -4.49196,-8.29195 -13.43164,-19.9668 -20.61499,-26.92233 -16.1949,-15.68129 -28.88366,-23.08978 -48.56998,-28.35818 -10.15368,-2.71731 -14.5297,-3.15784 -28.3057,-2.8495 -15.52161,0.34742 -20.89709,1.38962 -32.96187,6.39066 -6.63592,2.75069 -7.34049,3.403 -7.78464,7.20716 -0.24823,2.12604 -0.94103,4.46552 -1.53957,5.19885 -1.38555,1.6976 -4.87838,25.59504 -6.08997,41.66667 -1.05472,13.99072 -1.55329,13.47113 10.04064,10.46371 4.33732,-1.12508 14.67429,-1.92844 25.95724,-2.0173 15.62053,-0.12306 20.76665,0.37099 30.83556,2.96012 27.36265,7.03606 52.72232,26.98859 64.48671,50.73698 3.11906,6.29636 5.99521,13.86485 6.39142,16.81888 0.39622,2.95401 0.90711,5.37095 1.1353,5.37095 0.22818,0 2.43962,-1.19463 4.91429,-2.65473 8.9302,-5.26894 31.849,-11.54301 36.14456,-9.89465 1.52351,0.58463 1.5151,1.55983 -0.0527,6.11043 -1.02604,2.97812 -2.22519,8.03869 -2.66475,11.24569 -0.93868,6.84843 -1.82323,7.74408 -9.7388,9.86122 -11.73459,3.13857 -22.7104,9.58864 -29.97282,17.61386 -5.33358,5.89382 -7.8651,7.71818 -10.70984,7.71818 -5.70445,0 -7.26237,-3.28724 -7.31021,-15.42467 -0.17457,-44.28911 -41.91755,-80.57528 -88.88041,-77.26162 -9.07382,0.64024 -21.75153,3.36967 -28.82866,6.20664 l -3.66666,1.46983 0.008,23.50491 c 0.004,12.92769 0.54113,25.60491 1.19342,28.17157 0.65229,2.56667 1.93601,9.32947 2.85271,15.02844 1.55444,9.66382 1.85576,10.29539 4.47323,9.37619 1.54359,-0.54208 4.50672,-0.93845 6.58472,-0.88083 2.11744,0.0587 3.08257,-0.32516 2.19565,-0.87329 -2.03537,-1.25793 15.98054,-2.75195 24.69282,-2.04772 11.13303,0.89991 18.18033,2.06656 20.73185,3.43209 1.3344,0.71415 3.48796,1.29846 4.78568,1.29846 1.29772,0 7.94437,2.71688 14.77033,6.03752 9.85337,4.79337 14.44651,8.07318 22.28949,15.91617 5.43327,5.43327 11.52938,12.76637 13.54692,16.29581 5.70715,9.98395 5.64398,9.93238 9.67652,7.89903 1.9429,-0.97968 7.43255,-3.00484 12.19922,-4.50036 z m 617.06204,2.19108 c 4.095014,-7.50152 13.748864,-18.56623 22.488574,-25.77513 9.65796,-7.96635 27.09796,-17.03098 37.11608,-19.2915 3.66667,-0.82734 8.16667,-1.85672 10,-2.28748 6.95404,-1.6339 22.5367,-1.46997 33.9467502,0.35715 12.3668898,1.98032 13.8370298,1.61511 14.1247098,-3.50896 0.18114,-3.22663 0.92118,-8.22145 2.41682,-16.31212 0.77032,-4.16707 1.47948,-17.89755 1.57591,-30.51218 0.19403,-25.38313 0.81716,-23.61458 -9.5017298,-26.96746 -9.66886998,-3.14168 -13.45752,-3.85367 -22.5624602,-4.24003 -26.05006,-1.10541 -49.23837,7.48169 -65.53588,24.26929 -15.2664,15.72548 -22.439884,31.63165 -23.683204,52.51405 -0.44663,7.50121 -1.47537,13.81022 -2.40315,14.73776 -3.00492,3.00414 -9.40882,1.92128 -12.59542,-2.12983 -1.62307,-2.0634 -5.0223,-5.6134 -7.55383,-7.88889 -2.53153,-2.2755 -5.26857,-4.76183 -6.08232,-5.5252 -2.42235,-2.2724 -13.306,-6.99755 -22.00836,-9.55496 -7.77211,-2.28403 -8.13423,-2.58111 -8.13599,-6.6744 -10e-4,-2.35619 -1.18372,-7.28241 -2.62823,-10.94715 l -2.62637,-6.66316 4.6998,-0.8817 c 3.97241,-0.74522 10.77892,0.13187 20.64367,2.66023 1.14991,0.29472 6.09991,2.35371 11,4.57552 8.22389,3.72888 8.90928,3.84479 8.90928,1.50663 0,-4.87499 5.63479,-17.52704 12.13284,-27.24244 19.500174,-29.15519 50.790314,-46.2327 85.152674,-46.47459 16.2639702,-0.11453 25.2906302,0.89612 33.3258502,3.73111 3.1481498,1.11073 6.2484798,2.01952 6.8896198,2.01952 2.68945,0 -0.39807,-33.67858 -5.02239,-54.7841 -2.0118098,-9.18203 -2.5986898,-10.27681 -6.3476798,-11.84147 -14.62425,-6.10348 -18.0829502,-6.9047 -33.0160902,-7.6484 -13.1275,-0.65376 -17.51559,-0.32072 -28.14898,2.13644 -25.84061,5.97123 -45.975954,19.02887 -61.931134,40.16198 -10.40686,13.78416 -20.01524,36.77237 -22.43635,53.67931 -0.89844,6.27384 -3.20855,8.9629 -7.69983,8.9629 -1.0689,0 -4.85834,-2.6078 -8.421,-5.79509 -14.28863,-12.78327 -28.57988,-18.92043 -47.1442,-20.24539 -24.14941,-1.72357 -43.73765,5.10655 -63.0426,21.98202 -3.61499,3.16005 -9.7697,11.90906 -8.77616,12.47546 0.26698,0.1522 5.29138,2.75902 11.16534,5.79291 l 10.67991,5.51619 3.98676,-3.20626 c 5.65714,-4.54961 16.03914,-8.15638 25.70671,-8.93066 20.78275,-1.66451 41.21441,10.36585 48.91813,28.80345 2.40296,5.75108 2.99598,24.50664 0.84292,26.6597 -2.38208,2.38208 -1.6858,5.37649 2.08059,8.94768 7.6632,7.26605 17.57137,22.65732 21.67302,33.66666 1.1245,3.01834 2.17182,3.66667 5.92309,3.66667 7.64035,0 25.15767,4.09489 31.50896,7.36563 7.78124,4.0071 7.73657,4.0108 10.39535,-0.85971 z m -303.72869,-13.83925 c 6.56842,-2.56667 12.2884,-4.66667 12.71106,-4.66667 0.42266,0 11.54463,-4.2 24.7155,-9.33333 13.17085,-5.13334 24.80255,-9.33334 25.8482,-9.33334 1.04565,0 2.28825,-0.62628 2.76133,-1.39173 1.05494,-1.70691 -1.8901,-5.52253 -3.49629,-4.52985 -1.45547,0.89952 -9.04531,-11.05575 -13.17007,-20.74508 -5.21589,-12.25245 -6.66356,-22.10151 -7.57314,-51.52315 l -0.87152,-28.1898 3.47686,-3.47687 c 3.74624,-3.74624 6.99235,-4.30317 11.94052,-2.04864 5.78967,2.63795 6.5276,5.68015 7.21507,29.74484 0.72533,25.39028 2.10063,31.74567 9.13013,42.19147 6.002,8.91893 11.49902,13.70261 22.21939,19.33601 8.25504,4.3379 10.25285,4.80743 23.39275,5.4978 11.70045,0.61475 17.35808,1.7181 30.48368,5.94492 14.10243,4.54139 17.68536,5.18643 28.66667,5.1608 17.24358,-0.0403 26.87869,-4.71649 31.24382,-15.16372 2.67844,-6.4104 2.48059,-10.91592 -0.77462,-17.6403 -5.04811,-10.42801 -19.1837,-14.92029 -33.38524,-10.60979 -6.93366,2.10452 -19.48202,8.15706 -22.61842,10.90972 -1.78978,1.5708 -3.20285,1.28047 -10,-2.05471 -4.35363,-2.1362 -11.21568,-5.43401 -15.24901,-7.32845 -12.0727,-5.67051 -14.46918,-8.6002 -21.33631,-26.08347 -10.03076,-25.53772 -31.15855,-75.76151 -34.40252,-81.77978 -4.68503,-8.69173 -17.12973,-18.84606 -30.92784,-25.23576 -21.20496,-9.8197 -22.66667,-10.55566 -22.71462,-11.43674 -0.0264,-0.48458 -1.3879,-2.51724 -3.02561,-4.51703 l -2.97767,-3.63597 -8.3211,3.36105 c -11.95284,4.82796 -27.33426,4.81268 -36.68072,-0.0364 l -6.64047,-3.44521 -4.33436,5.06372 c -2.42261,2.83029 -7.48896,6.44912 -11.48657,8.20474 -22.98207,10.09296 -27.25409,12.64651 -35.81889,21.4103 -9.52094,9.74213 -8.21169,6.93512 -35.47021,76.04711 -5.64008,14.3 -11.62204,28.16752 -13.29325,30.8167 -2.40883,3.81844 -6.30603,6.45859 -18.80422,12.73884 -8.6711,4.35718 -16.73668,8.29053 -17.92349,8.74078 -1.30586,0.49541 -4.60115,-0.91849 -8.34608,-3.58104 -25.00276,-17.77631 -52.84528,-10.97251 -52.82443,12.90856 0.007,6.87281 3.28899,12.68368 10.10645,17.88839 4.63488,3.53844 6.02191,3.85468 18.74944,4.27492 12.80507,0.42281 14.7259,0.12973 28.10838,-4.2881 17.90468,-5.91074 19.57337,-6.23796 34.60668,-6.78602 14.09528,-0.51388 19.78513,-2.08435 29.09073,-8.02939 8.72654,-5.57511 15.55727,-12.75732 20.13874,-21.17499 3.55028,-6.52303 3.75298,-7.91083 4.79468,-32.82648 0.59822,-14.30853 1.65561,-27.33377 2.34974,-28.94499 3.15846,-7.33128 11.82342,-8.73141 17.3466,-2.80296 2.54758,2.7345 2.70267,4.59926 2.68775,32.31719 -0.0169,31.43783 -0.77473,36.83191 -7.12253,50.69732 -4.36746,9.53978 -8.29806,15.05858 -12.71306,17.84988 -5.94728,3.76007 -4.87889,5.88819 4.88432,9.72914 40.45765,15.91641 68.12097,26.22789 70.66247,26.33938 1.66579,0.0731 8.40287,-1.96716 14.9713,-4.53382 z M -627.46384,531.1167 c -3.72301,-3.3265 -4.06179,-4.1657 -2.70504,-6.7008 3.03611,-5.67301 12.83756,-5.4698 21.78553,0.4517 2.762,1.8278 5.02182,3.92961 5.02182,4.67069 0,1.85291 -5.35768,3.72463 -13.24182,4.62607 -5.92376,0.67729 -7.0431,0.36317 -10.86049,-3.04766 z m 391.68916,0.45524 c -2.28541,-1.73277 -2.21989,-2.00882 1.23781,-5.215 4.89331,-4.53732 15.59448,-7.14378 19.8904,-4.84468 4.54863,2.43435 5.11283,5.27582 1.7569,8.84806 -2.5136,2.67558 -4.20019,3.11994 -11.70436,3.08365 -5.30795,-0.0257 -9.7198,-0.76437 -11.18075,-1.87203 z m -313.35817,-90.08557 c 0.95215,-2.56667 1.7402,-5.14987 1.75124,-5.74043 0.0463,-2.47363 -15.37444,-8.00104 -24.05439,-8.62208 -9.86159,-0.7056 -26.5922,0.67904 -26.5922,2.20079 0,0.52764 2.25,1.75389 5,2.72501 10.20229,3.60276 18.83024,8.28837 28.4498,15.45035 l 9.88354,7.3585 1.91541,-4.35273 c 1.05348,-2.39401 2.69445,-6.45275 3.6466,-9.01941 z m 266.45627,11.97042 c 3.05159,-4.93758 28.11087,-19.67073 37.31506,-21.93872 l 4,-0.98562 -3.33333,-1.38024 c -5.74546,-2.37904 -30.40058,-1.9611 -38.66667,0.65545 -11.51686,3.64555 -11.55811,3.70319 -8.21415,11.47643 1.58676,3.68852 3.46921,8.24296 4.18324,10.121 1.35144,3.55453 3.27093,4.38964 4.71585,2.0517 z m -378.19098,-26.0983 c 1.93121,-1.62488 -19.00809,-24.36369 -30.44538,-33.06181 -7.051,-5.36233 -25.86649,-16.81032 -27.62881,-16.81032 -0.37115,0 -2.41743,-1.24085 -4.54729,-2.75745 -2.12987,-1.51661 -3.8725,-2.45816 -3.8725,-2.09235 0,0.36582 5.32368,5.95667 11.83039,12.42412 13.54175,13.46006 23.83153,28.41799 29.0906,42.28813 l 3.64042,9.6011 10.71929,-4.5879 c 5.89563,-2.52335 10.9416,-4.77494 11.21328,-5.00352 z m 508.79486,-2.66007 c 9.9366,-21.26374 22.68269,-37.84858 36.47156,-47.45568 3.1682,-2.20738 5.49254,-4.28123 5.16521,-4.60856 -0.85891,-0.85891 -22.87885,10.9428 -32.12524,17.2177 -12.53267,8.50508 -36.80035,33.30222 -36.80035,37.60325 0,0.88502 2.55,2.37017 5.66667,3.30032 3.11666,0.93014 7.76666,2.79861 10.33333,4.15212 2.56667,1.35352 4.81208,2.48746 4.98983,2.51986 0.17773,0.0324 3.01228,-5.69564 6.29899,-12.72901 z m -420.58916,-21.29886 c 1.9468,-5.12046 1.75632,-5.56616 -4.23306,-9.90484 -6.54893,-4.74402 -7.00573,-4.80257 -10.46661,-1.34169 -4.00992,4.00992 -3.30128,7.47264 2.3095,11.28527 6.50505,4.42029 10.69983,4.40717 12.39017,-0.0387 z m 40.41732,-3.82926 c 1.95232,-3.98718 3.54225,-7.73718 3.53317,-8.33334 -0.0294,-1.92852 -9.18116,-7.08393 -12.57525,-7.08393 -2.47811,0 -4.1368,1.43501 -6.68538,5.78381 -1.86424,3.1811 -3.38953,6.43156 -3.38953,7.22327 0,1.26353 12.72536,9.55291 14.78365,9.63017 0.431,0.0161 2.381,-3.23281 4.33334,-7.21998 z m 235.4482,2.6468 c 2.98915,-1.88698 5.43258,-4.47332 5.42983,-5.74746 -0.007,-3.20306 -4.8736,-10.89246 -7.54204,-11.91645 -2.71467,-1.04171 -14.13715,4.81404 -13.29687,6.81667 7.3734,17.57278 6.13552,16.70138 15.40908,10.84724 z m 40.72175,0.46448 c 5.21655,-4.58019 5.80618,-7.11071 2.50642,-10.7569 -2.90318,-3.20797 -4.222,-3.08544 -10.15051,0.94308 -4.09787,2.78459 -4.97618,4.17698 -4.97618,7.8889 0,7.2299 5.6046,8.08476 12.62027,1.92492 z m 61.0247,-16.86188 c 1.13204,-1.28334 2.46792,-4.43334 2.96862,-7 2.44356,-12.5261 2.87479,-13.06804 12.73432,-16.00434 9.75018,-2.90373 12.07052,-5.52061 9.36972,-10.56712 -1.26585,-2.36525 -12.18794,-6.76188 -16.79786,-6.76188 -2.02742,0 -4.15514,-5.54613 -5.23522,-13.64613 -0.87988,-6.59848 -4.56761,-10.82669 -8.22026,-9.42504 -2.70963,1.03979 -5.30692,6.74479 -6.3565,13.96215 -0.99741,6.85873 -2.33109,8.51574 -7.7819,9.6685 -2.01258,0.42562 -5.11726,1.07476 -6.89931,1.44252 -4.30288,0.888 -7.42657,4.17119 -7.42657,7.80576 0,3.60222 5.18269,6.86884 12.92324,8.14546 6.97446,1.15025 7.863,2.2356 10.26713,12.5412 2.77713,11.90448 5.97652,14.91545 10.45459,9.83892 z m -433.84874,-0.75448 c 0.80084,-0.96496 1.85363,-5.13696 2.33952,-9.27112 1.00382,-8.5409 4.20952,-12.9744 9.38135,-12.9744 5.97045,0 12.48289,-3.91535 12.48289,-7.50486 0,-3.64928 -6.6907,-8.48198 -11.75432,-8.49016 -1.69821,-0.003 -4.19944,-0.6 -5.55829,-1.32722 -2.28733,-1.22415 -3.0148,-3.08634 -4.6922,-12.0111 -1.05236,-5.59924 -3.46504,-10.43374 -5.6196,-11.26053 -3.23687,-1.24211 -5.57409,1.6872 -7.79388,9.76829 -3.39033,12.34244 -3.7042,12.76322 -10.89553,14.6063 -9.17732,2.35208 -12.6023,4.98357 -12.09563,9.2934 0.35084,2.98438 1.55459,3.84017 8.40945,5.97861 11.63204,3.62871 11.81166,3.78755 14.02219,12.40103 1.1122,4.33376 2.44337,8.92957 2.95816,10.2129 1.10267,2.74894 6.70936,3.11707 8.81589,0.57886 z m 125.52273,-22.89487 c 1.74116,-2.09797 0.88502,-8.02833 -1.58942,-11.00987 -2.31764,-2.79257 -8.77477,-2.03713 -10.52396,1.23124 -2.3564,4.40299 1.92366,11.76131 6.84112,11.76131 1.99472,0 4.36724,-0.89221 5.27226,-1.98268 z m 175.59511,-0.9164 c 3.59652,-3.37876 3.93915,-6.72389 0.99069,-9.67235 -2.85361,-2.85362 -6.70172,-2.63161 -9.90476,0.57143 -7.43746,7.43747 1.24688,16.30385 8.91407,9.10092 z m 62.2526,-2.44396 c 3.39181,-3.25301 3.14632,-8.77564 -0.56575,-12.72695 -3.90572,-4.15744 -8.4981,-4.15404 -12.66152,0.009 -9.46612,9.4661 3.55946,21.98974 13.22727,12.71756 z m -294.59525,0.58113 c 1.97286,-1.97285 2.71151,-5.33241 2.17771,-9.90476 -0.36455,-3.12262 -5.33871,-6.66666 -9.35687,-6.66666 -8.47332,0 -12.01661,12.8672 -4.85933,17.64625 2.59707,1.73411 9.87979,1.08388 12.03849,-1.07483 z m -266.80589,-11.66889 c 4.90641,-1.33124 6.0134,-2.08143 4.66666,-3.16253 -2.39796,-1.92498 -12.71023,-7.07334 -14.16803,-7.07334 -1.15974,0 -4.26417,8.72763 -4.26417,11.98803 0,1.76543 1.50906,1.57335 13.76554,-1.75216 z m 350.39436,-1.38768 c 1.9928,-4.37371 -4.01023,-14.18152 -8.68003,-14.18152 -4.86805,0 -6.72441,3.0906 -4.93668,8.21891 3.1508,9.03841 10.70759,12.34745 13.61671,5.96261 z m 124.45871,-1.82436 c 3.98574,-5.86555 4.08494,-6.70312 1.17475,-9.91884 -3.45977,-3.823 -6.77553,-2.89997 -11.11832,3.09507 -4.39972,6.07364 -4.80752,7.80078 -2.40836,10.19994 3.3488,3.3488 8.79345,1.8606 12.35193,-3.37617 z m 352.71475422,3.17513 c 0,-3.50288 -2.94848002,-10.1981 -4.46378002,-10.13605 -1.76249,0.0721 -16.5471702,7.70375 -15.5362202,8.01952 1.46782,0.45847 16.7761402,3.58689 18.3333302,3.74661 0.91667002,0.094 1.66667002,-0.6395 1.66667002,-1.63008 z M -690.6746,341.4225 c 1.46036,-4.60119 -2.59303,-8.59586 -14.24763,-14.04123 -6.10829,-2.85397 -21.60597,-10.36107 -34.43931,-16.68241 -12.83333,-6.32135 -27.83333,-13.44977 -33.33333,-15.84091 -5.5,-2.39116 -15.33141,-6.97796 -21.84759,-10.19291 -6.51617,-3.21493 -13.22263,-5.84535 -14.90323,-5.84535 -3.43152,0 -8.58252,5.69818 -8.58252,9.49423 0,3.68768 7.32144,7.89024 35.33334,20.28159 13.93333,6.16356 35.53333,15.85569 48,21.53808 38.26319,17.4406 41.78144,18.34285 44.02027,11.28891 z m 562.96102,-0.57324 c 9.44152,-4.58799 12.47573,-6.7247 13.10398,-9.22787 2.5588,-10.19511 -3.65384,-11.23449 -20.01754,-3.349 -13.0132,6.27092 -15.75732,9.77004 -12.0724,15.39395 1.1364,1.73434 3.10868,3.15336 4.38285,3.15336 1.27417,0 7.84557,-2.6867 14.60311,-5.97044 z m -281.90568,-1.35179 c 21.46012,-5.58964 34.62399,-18.88175 40.28537,-40.67778 5.70495,-21.96376 -5.3285,-46.60542 -25.87501,-57.78824 -21.8122,-11.87169 -48.95939,-6.82878 -65.01364,12.07704 -8.95004,10.53975 -11.84705,19.29107 -11.69681,35.33392 0.0989,10.56912 0.54668,12.50298 4.93878,21.33334 8.00642,16.09692 20.58759,26.66875 35.58204,29.89923 10.01627,2.15794 12.90319,2.13442 21.77927,-0.17751 z m 101.9244,-14.74675 c 4.99312,-6.7049 5.40174,-9.88416 1.70083,-13.23344 -2.48569,-2.24952 -2.82496,-2.25628 -6.08359,-0.1212 -4.36678,2.86128 -11.2839,13.66147 -11.2839,17.6184 0,1.65332 1.03914,3.58758 2.30922,4.29835 3.17208,1.77519 7.93094,-1.27524 13.35744,-8.56211 z m -210.26919,4.61578 c 1.2838,-2.39879 0.66428,-3.83664 -4.45224,-10.33334 -6.04269,-7.6727 -10.17555,-9.73205 -13.68529,-6.81922 -3.09467,2.56833 -2.26392,6.22322 3.02465,13.30705 4.16493,5.57876 5.63977,6.63204 9.28643,6.63204 3.0327,0 4.7832,-0.83719 5.82645,-2.78653 z m 464.190074,-21.10987 c 25.26571,-11.67456 33.07913,-16.50184 33.07913,-20.4369 0,-3.03102 -5.23764,-9.00004 -7.89726,-9.00004 -1.30372,0 -10.71018,4.12064 -20.90323,9.15698 -10.19307,5.03634 -22.52432,11.02068 -27.4028,13.29853 -10.19606,4.76074 -13.13004,7.26376 -13.13004,11.20142 0,3.81148 3.7564,7.67641 7.46085,7.67641 1.67615,0 14.63316,-5.35339 28.79335,-11.8964 z m -546.340694,-2.67472 c 1.33804,-1.47852 1.99339,-3.60326 1.54216,-5 -0.94953,-2.93927 -25.76336,-25.4398 -44.12236,-40.00902 -7.33333,-5.81953 -22.10941,-17.74472 -32.83573,-26.50042 -26.22718,-21.40875 -60.99911,-48.94279 -65.42051,-51.80302 -5.05725,-3.27155 -9.14401,-2.24765 -12.23905,3.06635 l -2.63034,4.51609 6.61132,6.15057 c 5.68163,5.28566 34.23631,28.42203 47.90786,38.81723 8.2521,6.27451 34.60565,27.21288 35.27312,28.02512 0.36667,0.4462 6.66667,5.34063 14,10.87651 7.33333,5.53588 20.20781,15.54769 28.60996,22.24848 8.51541,6.79111 16.53801,12.18323 18.12668,12.18323 1.56753,0 3.89713,-1.157 5.17689,-2.57112 z m 370.41163,1.06377 c 5.75263,-3.0787 90.8153,-70.15109 112.34152,-88.58189 7.33334,-6.27883 17.10286,-14.50066 21.710044,-18.27075 9.26932,-7.58515 11.02932,-11.29555 7.73954,-16.3164 -3.10316,-4.73603 -8.41684,-4.34912 -14.876244,1.0832 -2.882,2.42374 -14.84,12.16157 -26.57334,21.6396 -11.73333,9.47804 -22.23333,17.96628 -23.33333,18.86275 -1.1,0.89648 -7.4,5.93782 -14,11.20301 -18.36388,14.64989 -47.29367,38.75173 -61.33334,51.09775 -2.93333,2.57948 -6.41874,4.71248 -7.74536,4.74001 -1.32661,0.0275 -2.04185,0.64901 -1.58941,1.38107 0.45243,0.73204 -0.11213,2.66554 -1.25465,4.29666 -2.62282,3.7446 -2.6187,5.64041 0.018,8.2771 2.47944,2.47945 5.04534,2.649 8.89657,0.58789 z m 91.30743,-12.19476 c 19.21841,-11.35617 46.970734,-28.0542 54.009324,-32.49635 7.97165,-5.03101 8.32348,-12.06524 0.8168,-16.33084 -4.08087,-2.31892 -2.04149,-3.35537 -40.100234,20.37975 -32.30692,20.14801 -38.35847,24.87663 -38.35847,29.97279 0,3.48072 3.40547,8.20123 5.87332,8.14132 0.803,-0.0195 8.79467,-4.36948 17.75926,-9.66667 z m -541.97235,2.18375 c 2.55653,-5.61099 -0.61923,-9.12398 -19.2829,-21.33051 -27.32397,-17.8706 -49.35593,-31.15113 -51.67866,-31.15113 -4.27598,0 -8.03202,3.99154 -8.03202,8.53562 0,5.35107 1.08043,6.32002 18,16.14272 7.33334,4.25739 16.64711,9.97627 20.69728,12.70863 4.05019,2.73236 13.23179,8.27363 20.40356,12.31395 13.90495,7.83353 17.36985,8.31786 19.89274,2.78072 z m 108.93834,-20.82088 c 1.83077,-3.21584 1.64208,-3.76695 -3.60439,-10.52712 -8.6423,-11.13578 -66.24255,-72.62495 -114.40414,-122.12822 -10.06484,-10.34524 -13.31373,-11.61508 -17.92339,-7.00543 -5.57529,5.5753 -3.89645,8.79182 14.33334,27.46159 31.69459,32.45955 82.39959,85.15126 92.89851,96.53842 18.13425,19.66845 20.22341,21.44717 23.69821,20.1767 1.68847,-0.61734 3.93931,-2.64952 5.00186,-4.51594 z m 331.40143,-16.12395 c 11,-11.25691 32.9,-33.90193 48.66667,-50.32228 15.76667,-16.42036 36.01667,-37.3894 45,-46.59788 17.02435,-17.45104 18.69351,-20.46539 14.12668,-25.51167 -4.90798,-5.42327 -8.31513,-3.4638 -26.55339,15.27099 -108.40395,111.35515 -115.80352,119.86047 -109.63996,126.02403 4.39785,4.39785 8.0221,1.99064 28.4,-18.86319 z m -290.29669,13.05425 c 3.83815,-2.68834 4.02372,-9.8848 0.34087,-13.21774 -7.08716,-6.41379 -18.96511,1.92797 -14.58512,10.24298 0.88375,1.6777 2.26699,3.49118 3.07387,4.02995 2.47878,1.65512 8.05257,1.12861 11.17038,-1.05519 z m 232.29669,-0.59106 c 2.99384,-2.99384 3.25811,-4.93747 1.35272,-9.94899 -2.63263,-6.92435 -13.01947,-6.62679 -15.95368,0.45703 -1.68555,4.06925 -0.17408,10.0378 2.84813,11.24686 3.8968,1.55895 9.23624,0.76168 11.75283,-1.7549 z m 245.560954,-32.03231 c 2.10055,-2.81635 2.2725,-4.04757 1.05359,-7.54413 -1.90741,-5.47158 -7.05772,-6.93814 -11.85003,-3.37431 -5.84174,4.34425 -4.95384,10.89777 1.85587,13.69796 3.99871,1.64429 6.13691,0.97956 8.94057,-2.77952 z m -722.665954,0.49232 c 1.34108,-1.21365 2.43832,-3.23273 2.43832,-4.48685 0,-3.69222 -5.22829,-9.3065 -8.66667,-9.3065 -3.09669,0 -8.66666,5.49487 -8.66666,8.5498 0,0.83794 0.93402,2.85703 2.0756,4.48686 2.5184,3.59552 9.24388,3.9925 12.81941,0.75669 z m 263.23873,-10.81376 c 2.30157,-1.53681 4.53293,-6.48987 4.53293,-10.062 0,-4.09089 2.90035,-6.55837 8.19884,-6.97519 4.77935,-0.37597 10.04928,-2.9285 10.96319,-5.31012 1.15297,-3.00457 -2.94715,-6.89222 -9.07976,-8.60925 -7.09991,-1.98784 -7.9227,-2.83439 -10.19571,-10.49018 -0.98937,-3.33232 -3.09403,-6.69936 -4.9462,-7.91294 -3.03413,-1.98804 -3.35697,-1.93622 -5.48125,0.88002 -1.24148,1.64587 -3.03635,5.63118 -3.9886,8.85624 -1.63384,5.53347 -2.1353,5.98121 -8.90232,7.94843 -6.63955,1.93018 -9.90152,4.78834 -9.90152,8.67579 0,2.05987 9.39162,5.86156 16.27292,6.5872 0.51676,0.0545 1.32026,2.12831 1.78554,4.60848 1.05107,5.60265 5.33516,12.8308 7.5886,12.80352 0.92746,-0.0107 2.34644,-0.46123 3.15334,-1 z m 189.59582,-0.65371 c 0.76417,-0.92077 1.82184,-3.47077 2.35038,-5.66666 2.03539,-8.4564 4.35106,-11.32588 9.13994,-11.32588 10.24817,0 14.03033,-10.75095 4.44805,-12.64382 -9.69732,-1.9156 -11.03753,-3.03826 -13.07417,-10.95193 -3.33694,-12.96616 -9.20464,-13.11003 -13.44415,-0.32963 -1.32431,3.99229 -2.42475,7.40871 -2.44539,7.59204 -0.0207,0.18333 -0.86128,0.33333 -1.86805,0.33333 -3.46997,0 -14.137,5.44793 -15.44221,7.88674 -1.84095,3.43984 1.66674,6.25347 10.6631,8.55321 5.2575,1.34398 7.38951,2.55828 7.6844,4.37671 0.56659,3.49383 3.11682,10.18243 4.64527,12.18335 1.63895,2.14556 5.55929,2.14157 7.34283,-0.008 z m 71.59149,-20.65921 c 4.86079,-5.19775 5.62647,-9.31176 2.34399,-12.59423 -3.50815,-3.50816 -7.37021,-2.27624 -10.93216,3.48711 -3.27844,5.30463 -3.43244,7.88375 -0.63763,10.67855 3.00064,3.00064 5.3195,2.60568 9.2258,-1.57143 z m -328.82277,-0.0187 c 2.52734,-4.72237 -4.94893,-15.73197 -10.01991,-14.7554 -1.31269,0.2528 -3.27573,2.04353 -4.3623,3.97942 -1.84878,3.29381 -1.74036,3.82817 1.68869,8.32389 4.14328,5.43213 10.44696,6.64985 12.69352,2.45209 z m -21.43161,-28.58133 c 3.33041,-3.33042 1.4558,-8.80542 -7.06667,-20.63907 -4.90604,-6.81215 -8.47165,-8.1182 -11.66667,-4.2734 -3.64481,4.38611 -2.84564,7.49524 4.45955,17.34939 6.88809,9.29152 10.58599,11.25088 14.27379,7.56308 z m 192.41802,0.24801 c 14.25666,-2.68376 28.02654,-12.44901 37.73669,-26.76192 9.0036,-13.27148 10.01172,-38.66697 2.18587,-55.064566 -4.77222,-9.99926 -12.80699,-18.78854 -22.25471,-24.3445 -9.45985,-5.56309 -14.62577,-7.16779 -25.88555,-8.04091 -17.24978,-1.33758 -33.67324,5.13231 -45.28822,17.84096 -12.19345,13.34158 -17.67679,31.069736 -15.08895,48.783906 1.78865,12.24348 5.77372,20.59514 14.25531,29.87535 14.67226,16.0538 32.41878,21.83819 54.33956,17.71168 z m 181.2893,-4.92893 c 9.59134,-13.21292 10.94938,-16.79572 7.62602,-20.11908 -2.51173,-2.51174 -7.01448,-1.88046 -9.98574,1.4 -4.56472,5.03972 -12.41426,17.50585 -12.41426,19.71553 0,3.11033 2.75952,5.28447 6.70731,5.28447 2.64591,0 4.62709,-1.5426 8.06667,-6.28092 z m -326.058,-20.48108 c 1.07287,-2.07472 1.95068,-5.30201 1.95068,-7.17176 0,-5.02333 4.40496,-8.73288 10.36999,-8.73288 6.21517,0 10.96334,-3.13807 10.96334,-7.24568 0,-4.54156 -2.71348,-6.09089 -14.39961,-8.22183 -2.68772,-0.49009 -5.60039,-3.32206 -5.60039,-5.44522 0,-4.11608 -4.3523,-14.93716 -6.30998,-15.68839 -5.07084,-1.94587 -8.76972,2.14593 -10.27768,11.36948 -1.06823,6.53379 -3.3173,9.17944 -8.34334,9.81451 -5.39953,0.68225 -11.09852,3.4533 -12.82488,6.2359 -2.17837,3.51119 -0.0871,6.26502 6.01872,7.92552 6.92714,1.88388 8.01756,2.1675 9.73716,2.53267 2.80914,0.59653 4.392,2.99217 6.00054,9.08171 2.85781,10.81897 8.67632,13.35677 12.71545,5.54597 z m 297.53142,-10.80372 c 6.41872,-6.03008 2.57014,-13.89809 -6.48549,-13.25889 -6.11455,0.4316 -8.44914,8.80408 -3.76191,13.4913 3.44109,3.4411 6.40878,3.37379 10.2474,-0.23241 z m -372.18681,-5.70699 c 1.8,-1.8 3.27273,-3.96234 3.27273,-4.80521 0,-1.56663 -18.83624,-29.61543 -22.0394,-32.8186 -2.8497,-2.849706 -7.41038,-2.049106 -10.80384,1.89655 -1.73442,2.01666 -3.15424,4.33929 -3.15513,5.16137 -0.001,1.31932 5.17452,8.26137 21.00484,28.17196 5.19029,6.52809 7.18021,6.93453 11.7208,2.39393 z m 430.13601,-5.72726 c 19.13803,-24.23666 19.41471,-24.84323 13.864,-30.39394 -4.05478,-4.054796 -6.15424,-4.113856 -9.69268,-0.27273 -4.69141,5.09276 -20.36792,30.12449 -20.36792,32.52284 0,3.05407 3.86522,7.14383 6.75162,7.14383 1.29601,0 5.50608,-4.01172 9.44498,-9 z M -316.46651,97.946374 c 3.77217,-3.41376 3.18279,-10.34754 -1.17064,-13.77194 -8.78231,-6.90817 -20.26985,5.43311 -12.39104,13.31193 3.26045,3.260446 10.20687,3.496076 13.56168,0.46001 z m -193.33334,-9.33334 c 5.98411,-5.41553 0.21753,-17.62666 -7.41888,-15.71004 -6.72751,1.6885 -9.43693,9.19058 -5.40053,14.95335 2.5184,3.59552 9.24388,3.99251 12.81941,0.75669 z m -64.28029,-10.04476 c 3.44576,-3.69858 3.43433,-6.47908 -0.0448,-10.9021 -7.1139,-9.04386 -20.30879,0.89786 -13.99034,10.54104 2.84447,4.34121 10.15196,4.5292 14.03516,0.36106 z m 321.52418,0.11254 c 2.14964,-2.14964 2.61303,-3.78616 1.98204,-7 -1.57661,-8.03016 -10.38719,-10.33335 -15.3575,-4.01463 -3.51466,4.46816 -3.48417,6.88113 0.13564,10.73425 3.64414,3.87899 9.51683,4.00336 13.23982,0.28038 z"
         id="path344" />
    </g>
  </g>
</svg>
