<?xml version="1.0" encoding="UTF-8" standalone="no"?>
<svg
   width="24px"
   height="24px"
   viewBox="0 0 24 24"
   fill="none"
   color="#000000"
   stroke-width="1.5"
   version="1.1"
   id="svg2"
   sodipodi:docname="pause.svg"
   inkscape:version="1.3.2 (091e20ef0f, 2023-11-25)"
   xmlns:inkscape="http://www.inkscape.org/namespaces/inkscape"
   xmlns:sodipodi="http://sodipodi.sourceforge.net/DTD/sodipodi-0.dtd"
   xmlns="http://www.w3.org/2000/svg"
   xmlns:svg="http://www.w3.org/2000/svg">
  <defs
     id="defs2" />
  <sodipodi:namedview
     id="namedview2"
     pagecolor="#ffffff"
     bordercolor="#000000"
     borderopacity="0.25"
     inkscape:showpageshadow="2"
     inkscape:pageopacity="0.0"
     inkscape:pagecheckerboard="0"
     inkscape:deskcolor="#d1d1d1"
     inkscape:zoom="30.416667"
     inkscape:cx="11.983562"
     inkscape:cy="12"
     inkscape:window-width="1920"
     inkscape:window-height="1080"
     inkscape:window-x="0"
     inkscape:window-y="0"
     inkscape:window-maximized="0"
     inkscape:current-layer="svg2" />
  <path
     d="M6 18.4V5.6C6 5.26863 6.26863 5 6.6 5H9.4C9.73137 5 10 5.26863 10 5.6V18.4C10 18.7314 9.73137 19 9.4 19H6.6C6.26863 19 6 18.7314 6 18.4Z"
     fill="#000000"
     stroke="#000000"
     stroke-width="1.5"
     id="path1" />
  <path
     d="M14 18.4V5.6C14 5.26863 14.2686 5 14.6 5H17.4C17.7314 5 18 5.26863 18 5.6V18.4C18 18.7314 17.7314 19 17.4 19H14.6C14.2686 19 14 18.7314 14 18.4Z"
     fill="#000000"
     stroke="#000000"
     stroke-width="1.5"
     id="path2" />
</svg>
