<?xml version="1.0" encoding="UTF-8" standalone="no"?>
<svg
   width="1000px"
   height="1000px"
   viewBox="0 0 1000 1000"
   version="1.1"
   id="svg16"
   sodipodi:docname="telegram.svg"
   inkscape:version="1.2.2 (b0a8486541, 2022-12-01)"
   xmlns:inkscape="http://www.inkscape.org/namespaces/inkscape"
   xmlns:sodipodi="http://sodipodi.sourceforge.net/DTD/sodipodi-0.dtd"
   xmlns="http://www.w3.org/2000/svg"
   xmlns:svg="http://www.w3.org/2000/svg">
  <sodipodi:namedview
     id="namedview18"
     pagecolor="#ffffff"
     bordercolor="#000000"
     borderopacity="0.25"
     inkscape:showpageshadow="2"
     inkscape:pageopacity="0.0"
     inkscape:pagecheckerboard="0"
     inkscape:deskcolor="#d1d1d1"
     showgrid="false"
     inkscape:zoom="0.874"
     inkscape:cx="500"
     inkscape:cy="500"
     inkscape:window-width="1920"
     inkscape:window-height="1032"
     inkscape:window-x="0"
     inkscape:window-y="24"
     inkscape:window-maximized="1"
     inkscape:current-layer="Artboard" />
  <!-- Generator: Sketch 53.2 (72643) - https://sketchapp.com -->
  <title
     id="title2">Artboard</title>
  <desc
     id="desc4">Created with Sketch.</desc>
  <defs
     id="defs11">
    <linearGradient
       x1="50%"
       y1="0%"
       x2="50%"
       y2="99.2583404%"
       id="linearGradient-1">
      <stop
         stop-color="#2AABEE"
         offset="0%"
         id="stop6" />
      <stop
         stop-color="#229ED9"
         offset="100%"
         id="stop8" />
    </linearGradient>
  </defs>
  <g
     id="Artboard"
     stroke="none"
     stroke-width="1"
     fill="none"
     fill-rule="evenodd">
    <path
       d="M 129.15064,481.74219 C 335.39913,391.883 472.93042,332.64232 541.74452,304.02016 c 196.47824,-81.7221 237.30474,-95.91811 263.91488,-96.38687 5.85265,-0.1031 18.93874,1.34737 27.41537,8.22556 7.15749,5.80781 9.1268,13.65334 10.06918,19.15978 0.94238,5.50644 2.11587,18.05026 1.18303,27.85164 -10.64722,111.87131 -56.71759,383.3535 -80.15558,508.65129 -9.9175,53.01819 -29.44535,70.79492 -48.35057,72.53461 -41.08542,3.78075 -72.28382,-27.15211 -112.07706,-53.23708 C 541.47521,750.00126 506.29743,724.59204 445.85501,684.76138 376.00333,638.73016 421.28526,613.4306 461.09353,572.08404 471.51154,561.26345 652.53485,396.60876 656.03856,381.672 c 0.4382,-1.8681 0.84487,-8.83146 -3.29194,-12.50837 -4.13681,-3.67691 -10.24239,-2.41955 -14.64834,-1.41956 -6.24531,1.41746 -105.72015,67.16664 -298.42451,197.24753 -28.2356,19.38875 -53.81053,28.83559 -76.72479,28.34054 -25.26114,-0.54575 -73.85342,-14.28303 -109.97679,-26.02531 -44.30679,-14.40239 -79.520939,-22.01704 -76.454577,-46.47675 1.597151,-12.74013 19.141493,-25.76943 52.633027,-39.08789 z"
       id="Path-3"
       fill="#FFFFFF"
       style="fill:#000000;stroke-width:1.41499" />
  </g>
</svg>
